# xmcd
# 
# Track frame offsets:
#     182
#     10037
#     22757
#     34320
#     46407
#     58167
#     69425
#     82170
#     92472
#     102685
#     114030
#     131315
#     141242
#     155957
#     169710
#     182520
#     195767
#     208987
#     221047
#     232617
#     244107
#     255382
#     266115
#     276877
# 
# Disc length: 3829
# 
# Revision: 7
# Processed by: cddbd v1.5.2PL0 Copyright (c) Steve Scherf et al.
# Submitted via: BonkEnc v1.0.8
# 
DISCID=4b0ef318
DTITLE=Milionário and José Rico - Dose dupla - Vol. 05: 1-12, Vol. 08: 13-24
DYEAR=1979
DGENRE=Country
TTITLE0=Estrada da vida
TTITLE1=Bebida nâo cura paixão
TTITLE2=Meu sofrimento
TTITLE3=Destino cruel
TTITLE4=Sentimento sertanejo
TTITLE5=Adeus
TTITLE6=Migalhas de amor
TTITLE7=Doce ilusão
TTITLE8=Conselho
TTITLE9=Ciumento
TTITLE10=Solidão
TTITLE11=Esquecido
TTITLE12=Herança
TTITLE13=Realidade
TTITLE14=Do mundo nada se leva
TTITLE15=Genro valente
TTITLE16=A caminho do além
TTITLE17=Eu, você e ela
TTITLE18=O tropeiro
TTITLE19=Barco sem rumo
TTITLE20=Morena de Campo Grande
TTITLE21=Alma perdida
TTITLE22=Longa caminhada
TTITLE23=Anjo demônio
EXTD=
EXTT0=
EXTT1=
EXTT2=
EXTT3=
EXTT4=
EXTT5=
EXTT6=
EXTT7=
EXTT8=
EXTT9=
EXTT10=
EXTT11=
EXTT12=
EXTT13=
EXTT14=
EXTT15=
EXTT16=
EXTT17=
EXTT18=
EXTT19=
EXTT20=
EXTT21=
EXTT22=
EXTT23=
PLAYORDER=
